<?xml version="1.0" standalone="no"?>
<!DOCTYPE svg PUBLIC "-//W3C//DTD SVG 1.1//EN" "http://www.w3.org/Graphics/SVG/1.1/DTD/svg11.dtd">
<svg xmlns="http://www.w3.org/2000/svg" viewBox="0 0 426.83 156" width="426.8299865722656" height="156"><g fill="#247c2a"><path d="m164.33 122.96h262.5v3.7h-262.5z"/><path d="m164.33 132.74h262.5v3.7h-262.5z"/><path d="m164.33 142.52h262.5v3.7h-262.5z"/><path d="m164.33 152.3h262.5v3.7h-262.5z"/><path d="m210.54 154.22s8.25-4.5 14.75-9.25 9.25-4.25 12.25-4.25.75 1 3 1 3.5-4 7.5-4 13.25 2 18 2 7.76-5.9 13.75-6.25c13-.75 10-7.25 18.5-7.25 0 0 6.5 1.5 13.75 6.5s11 6 16 6 9.5-1.75 14.25-1.75 8.5-7 12.5-7 9.5 8 14.5 10.75 15.75 12.5 15.75 12.5l-174.46 1z"/><path d="m10.17 0h22v156h-22z"/><path d="m127.17 0h22v156h-22z"/><path d="m0 26.67h159.5v6.5h-159.5z"/><path d="m0 76.67h159.5v6.5h-159.5z"/><path d="m39.57 12.67h10v83.5h-10z"/><path d="m62.97 12.67h10v83.5h-10z"/><path d="m86.37 12.67h10v83.5h-10z"/><path d="m109.77 12.67h10v83.5h-10z"/><path d="m39.57 109.54h80.2v46.46h-80.2z"/><path d="m343.81 64.63h-9.36l-15.41 42.67h8.34l7.98-20.17v20.5h7.53v-20.5l7.98 20.17h8.35z"/><path d="m164.45 1.08h30.43v9.07h-18.07v7.44h15.42v8.5h-15.42v17.25h-12.36z"/><path d="m227.85 1.08h9.52v25.19c0 2.5-.37 4.86-1.1 7.08s-1.88 4.16-3.44 5.82-3.2 2.83-4.92 3.5c-2.39.94-5.25 1.41-8.59 1.41-1.93 0-4.04-.14-6.33-.43s-4.2-.86-5.73-1.71c-1.54-.86-2.94-2.07-4.21-3.65s-2.15-3.2-2.62-4.87c-.76-2.69-1.14-5.07-1.14-7.15v-25.19h8.83v25.78c0 2.3.6 4.1 1.8 5.4s4.13 3.31 8.43 3.31 6.5-2.01 7.7-3.29 1.8-3.09 1.8-5.43z"/><path d="m243.17 1.08h10.7l11.69 15.38 12.38-15.38h9.96v42.25h-10.07v-27.79l-11.17 14.11h-2.82l-10.61-14.11v27.79h-10.07v-42.25z"/><path d="m340.78 1.08h37.38v8.14h-14.11v34.11h-9.16v-34.11h-14.11z"/><path d="m164.33 65.05h17.78c4.45 0 7.79 1.12 10.01 3.37s3.33 5.44 3.33 9.59-1.21 7.6-3.63 10-6.1 3.6-11.07 3.6h-6.73v15.69h-9.69zm9.69 18h5.69c2.38 0 3.32-.44 4.29-1.31.96-.87 1.44-2 1.44-3.36s-.42-2.45-1.25-3.38c-.83-.92-1.68-1.39-3.99-1.39h-6.18z"/><path d="m200.79 65.05h17.78c4.45 0 7.79 1.12 10.01 3.37s3.33 5.44 3.33 9.59-1.21 7.6-3.63 10-6.1 3.6-11.07 3.6h-6.73v15.69h-9.69zm9.69 18h5.69c2.38 0 3.32-.44 4.29-1.31.96-.87 1.44-2 1.44-3.36s-.42-2.45-1.25-3.38c-.83-.92-1.68-1.39-3.99-1.39h-6.18z"/><path d="m263.47 100.3h-17.44l-2 7h-10.9l15.4-42.25h11.87l16.99 42.25h-11.93zm-2.61-9.12-6.59-15.18-5.63 15.18z"/><path d="m280.19 107.3v-42.25h16.92c3.79 0 6.11.96 8.12 1.65 2 .69 3.62 1.97 4.85 3.84s1.84 4.15 1.84 6.83c0 2.34-.47 4.36-1.41 6.06s-2.23 3.07-3.87 4.13c-1.05.67-1.9.61-3.72 1.05 1.46.52 2.53 1.04 3.2 1.56.45.35 1.1 1.09 1.96 2.22.86 1.14 1.43 2.01 1.72 2.63l5.94 12.28h-11.26l-6.55-12.94c-.83-1.67-1.57-2.76-2.21-3.26-.88-.65-1.88-.98-3-.98h-3.7v17.19h-8.83zm8.83-25.19h5.15c.56 0 1.63-.19 3.23-.57.81-.17 1.47-.61 1.98-1.32s.77-1.52.77-2.44c0-1.36-.41-2.4-1.21-3.13-.81-.73-2.33-1.09-4.55-1.09h-5.36v8.56z"/><path d="m315.46 0c-12.64 0-22.88 9.74-22.88 21.75s10.24 21.75 22.88 21.75 22.88-9.74 22.88-21.75-10.24-21.75-22.88-21.75zm0 35.35c-7.07 0-12.8-6.09-12.8-13.6s5.73-13.6 12.8-13.6 12.8 6.09 12.8 13.6-5.73 13.6-12.8 13.6z"/><path d="m403.95 0c-12.64 0-22.88 9.74-22.88 21.75s10.24 21.75 22.88 21.75 22.88-9.74 22.88-21.75-10.24-21.75-22.88-21.75zm0 35.35c-7.07 0-12.8-6.09-12.8-13.6s5.73-13.6 12.8-13.6 12.8 6.09 12.8 13.6-5.73 13.6-12.8 13.6z"/><ellipse cx="373.8" cy="63.83" rx="2.35" ry="2.5"/><path d="m371.45 69.83h4.4v17.17h-4.4z"/><path d="m391.38 69.67c-4.39 0-4.83 1.7-5.96 2.54v-2.37h-4.4v17.17h4.4v-11.98c.25-1.02 1.29-2.35 5.09-2.35 0 0 2.38-.08 2.38 1.83v12.5h4.39v-13.42c0-1.67-1.79-3.92-5.9-3.92z"/><path d="m425.68 84.42c0 1.73-1.32 3.12-2.94 3.12s-2.94-1.4-2.94-3.12 1.32-3.12 2.94-3.12 2.94 1.4 2.94 3.12z"/><path d="m416.32 85.34c-1.56 1.44-3.62 2.32-5.88 2.32-4.84 0-8.77-4.03-8.77-9s3.93-9 8.77-9c2.54 0 4.82 1.11 6.42 2.87l-1.44 2.14c-.9-.86-2.09-1.38-3.39-1.38-2.8 0-5.06 2.41-5.06 5.38s2.27 5.38 5.06 5.38c1.57 0 2.98-.76 3.91-1.96l.38 3.26z"/></g></svg>